:FULLY-SPECIFIED
:FORCE-ALL-JOINTS-BE-3DOF
:DEGREES
102
root 7.37671 16.6664 -26.7304 3.97006 10.7527 -4.37174
lfemur -27.4139 -5.04144 -9.88895
ltibia 39.627 -0 0
lfoot -18.2835 -2.47926 -0.057662
ltoes 15.746 -0 0
rfemur -30.9362 -9.57978 8.68984
rtibia 70.8274 -0 0
rfoot 6.4607 15.4643 0.143833
rtoes -16.1184 0 0
lowerback 0.746514 2.01613 1.39948
upperback -1.27447 2.75587 1.90643
thorax -1.72718 1.36951 1.15904
lowerneck -10.3764 -4.89007 2.37572
upperneck -0.904664 -6.78186 0.918752
head 1.40981 -3.35693 -0.397501
lclavicle 2.56432e-014 1.39149e-015 0
lhumerus -46.4493 -7.94088 93.0314
lradius 47.8753 -0 0
lwrist 15.1917 0 0
lhand 6.60544 7.4537 -0.00107175
lfingers 7.12502 -0 0
lthumb 31.8998 34.6773 -0.00185745
rclavicle 2.56432e-014 1.39149e-015 0
rhumerus -42.9003 0.236391 -72.9405
rradius 50.9841 -0 0
rwrist -0.327216 0 0
rhand -17.6821 -13.8317 0.0821491
rfingers 7.12502 -0 0
rthumb 8.57648 -43.6141 0.0817121
103
root 7.40503 16.6824 -26.7143 3.2516 11.2247 -4.21179
lfemur -26.4129 -4.575 -10.3664
ltibia 39.1486 -0 0
lfoot -17.9235 -3.49868 -0.0768964
ltoes 17.646 -0 0
rfemur -33.2128 -8.34122 7.14294
rtibia 74.1171 -0 0
rfoot 9.78009 15.7392 0.192103
rtoes -11.8128 0 0
lowerback 1.42387 1.72816 1.21725
upperback -0.986081 2.38295 1.96539
thorax -1.80816 1.18386 1.32942
lowerneck -10.4516 -4.85949 2.30658
upperneck -0.781955 -6.73677 0.875864
head 1.46473 -3.3339 -0.402476
lclavicle 2.56432e-014 1.39149e-015 0
lhumerus -46.2153 -8.57461 93.1252
lradius 47.9028 -0 0
lwrist 14.9789 0 0
lhand 6.77472 7.4134 -0.00142901
lfingers 7.12502 -0 0
lthumb 32.0609 34.6039 -0.00247662
rclavicle 2.56432e-014 1.39149e-015 0
rhumerus -42.9363 0.516564 -72.1436
rradius 51.0204 -0 0
rwrist 1.37639 0 0
rhand -18.4406 -14.521 0.10955
rfingers 7.12502 -0 0
rthumb 7.84423 -44.3243 0.108967
104
root 7.43336 16.6983 -26.6982 2.53328 11.6986 -4.05763
lfemur -25.4165 -4.10034 -10.8354
ltibia 38.6702 -0 0
lfoot -17.5633 -4.5182 -0.0897231
ltoes 19.5461 -0 0
rfemur -35.5156 -7.1647 5.55212
rtibia 77.4067 -0 0
rfoot 13.0997 16.0165 0.224374
rtoes -7.50724 0 0
lowerback 2.10204 1.44237 1.03166
upperback -0.698147 2.00974 2.02246
thorax -1.88968 0.998441 1.50005
lowerneck -10.5269 -4.82899 2.2374
upperneck -0.659291 -6.69158 0.833078
head 1.51964 -3.31086 -0.407429
lclavicle 2.56432e-014 1.39149e-015 0
lhumerus -45.9819 -9.2087 93.2166
lradius 47.9304 -0 0
lwrist 14.7661 0 0
lhand 6.944 7.37309 -0.00166718
lfingers 7.12502 -0 0
lthumb 32.222 34.5305 -0.00288939
rclavicle 2.56432e-014 1.39149e-015 0
rhumerus -42.9684 0.79721 -71.3469
rradius 51.0567 -0 0
rwrist 3.07999 0 0
rhand -19.1993 -15.2106 0.127822
rfingers 7.12502 -0 0
rthumb 7.11169 -45.0348 0.127141
105
root 7.46169 16.7142 -26.6821 1.81501 12.1743 -3.90929
lfemur -24.4245 -3.61763 -11.2957
ltibia 38.1917 -0 0
lfoot -17.2028 -5.53779 -0.0961376
ltoes 21.4462 -0 0
rfemur -37.8451 -6.05284 3.91873
rtibia 80.6963 -0 0
rfoot 16.4194 16.2951 0.240537
rtoes -3.20165 0 0
lowerback 2.78105 1.1588 0.842719
upperback -0.410644 1.63624 2.07764
thorax -1.97175 0.81327 1.67094
lowerneck -10.6022 -4.79859 2.16819
upperneck -0.536672 -6.64631 0.790394
head 1.57454 -3.28783 -0.412359
lclavicle 2.56432e-014 1.39149e-015 0
lhumerus -45.7491 -9.84316 93.3056
lradius 47.9579 -0 0
lwrist 14.5533 0 0
lhand 7.11329 7.33279 -0.00178627
lfingers 7.12502 -0 0
lthumb 32.3831 34.4571 -0.00309578
rclavicle 2.56432e-014 1.39149e-015 0
rhumerus -42.9965 1.07827 -70.5502
rradius 51.093 -0 0
rwrist 4.78359 0 0
rhand -19.9583 -15.9003 0.136959
rfingers 7.12502 -0 0
rthumb 6.37898 -45.7454 0.13623
106
root 7.49002 16.7301 -26.6659 1.09669 12.6518 -3.7668
lfemur -23.437 -3.12707 -11.7473
ltibia 37.7133 -0 0
lfoot -16.8424 -6.55739 -0.0961376
ltoes 23.3463 -0 0
rfemur -40.2012 -5.00825 2.2443
rtibia 83.9859 -0 0
rfoot 19.7391 16.5743 0.240537
rtoes 1.10395 -0 0
lowerback 3.46094 0.877485 0.650445
upperback -0.123549 1.26247 2.13093
thorax -2.05437 0.628346 1.84208
lowerneck -10.6775 -4.76828 2.09893
upperneck -0.414098 -6.60094 0.747811
head 1.62944 -3.26478 -0.417268
lclavicle 2.56432e-014 1.39149e-015 0
lhumerus -45.5168 -10.478 93.392
lradius 47.9855 -0 0
lwrist 14.3406 0 0
lhand 7.28257 7.29248 -0.00178627
lfingers 7.12502 -0 0
lthumb 32.5442 34.3837 -0.00309578
rclavicle 2.56432e-014 1.39149e-015 0
rhumerus -43.0208 1.3597 -69.7536
rradius 51.1294 -0 0
rwrist 6.48719 0 0
rhand -20.7173 -16.5901 0.136959
rfingers 7.12502 -0 0
rthumb 5.64622 -46.4561 0.13623
